# xmcd
#
# Track frame offsets: 
#        150
#        24293
#        46963
#        60256
#        74603
#        90851
#        103106
#        124146
#        140018
#        164136
#        185398
#        198912
#        219006
#        238600
#        257885
#
# Disc length: 3717 seconds
#
# Revision: 0
# Processed by: cddbd v1.5.2PL0 Copyright (c) Steve Scherf et al.
# Submitted via: ExactAudioCopyFreeDBPlugin 1.0
#
DISCID=cf0e830f
DTITLE=Nine Below Zero - Chilled
DYEAR=2002
DGENRE=Blues
TTITLE0=I Should Have Left It Up To You
TTITLE1=Why Don't You Try Me Tonight
TTITLE2=Spanish Harlem
TTITLE3=Why Can't We Be What We Want To Be
TTITLE4=Egg On My Face
TTITLE5=You Don't Love Me
TTITLE6=Loaded Gun
TTITLE7=Ballad Of Dombovar
TTITLE8=White Boys Lost In The Blues
TTITLE9=Bring It On Home To Me
TTITLE10=How Sweet It Is (To Be Loved By You)
TTITLE11=One Foot In Heaven, One Foot In Hell
TTITLE12=Helen
TTITLE13=Down By The River (Bonus)
TTITLE14=Soft Touch (Bonus)
EXTD=
EXTT0=
EXTT1=
EXTT2=
EXTT3=
EXTT4=
EXTT5=
EXTT6=
EXTT7=
EXTT8=
EXTT9=
EXTT10=
EXTT11=
EXTT12=
EXTT13=
EXTT14=
PLAYORDER=
